# xmcd
#
# Track frame offsets: 
#        150
#        18392
#        41565
#        66242
#        88765
#        107302
#        124112
#        140970
#        161912
#
# Disc length: 2411 seconds
#
# Revision: 11
# Processed by: cddbd v1.5.2PL0 Copyright (c) Steve Scherf et al.
# Submitted via: ExactAudioCopyFreeDBPlugin 1.0
#
DISCID=7c096909
DTITLE=Roberto Carlos - Roberto Carlos - 2005
DYEAR=2005
DGENRE=Sertanejo
TTITLE0=Promessa
TTITLE1=A Volta
TTITLE2=O Amor é Mais
TTITLE3=Arrasta Uma Cadeira
TTITLE4=O Baile da Fazenda
TTITLE5=Coração Sertanejo
TTITLE6=Índia
TTITLE7=Meu Pequeno Cachoeiro
TTITLE8=Loving You
EXTD=
EXTT0=
EXTT1=
EXTT2=
EXTT3=
EXTT4=
EXTT5=
EXTT6=
EXTT7=
EXTT8=
PLAYORDER=
